<?xml version="1.0" encoding="UTF-8"?>
<svg id="Layer_1" xmlns="http://www.w3.org/2000/svg" version="1.1" viewBox="0 0 188.5 58.9">
  <!-- Generator: Adobe Illustrator 29.7.1, SVG Export Plug-In . SVG Version: 2.1.1 Build 8)  -->
  <defs>
    <style>
      .st0 {
        fill: #211f52;
      }

      .st1 {
        fill: #82b7e3;
      }
    </style>
  </defs>
  <g>
    <path class="st0" d="M59.4,41.8c-1.2-.1-2.1-.3-2.8-.6v-3.3c.8.3,1.7.5,2.8.6s2.2.2,3.2.2,2.2,0,2.8-.2c.6-.1.9-.4.9-.7s-.1-.5-.4-.6c-.2-.1-.7-.2-1.4-.2h-4c-1.3,0-2.3-.2-3-.7s-1.1-1.1-1.1-2,.2-1.2.6-1.7c.4-.5.9-.9,1.6-1.2-.9-.4-1.5-1-1.9-1.6-.4-.7-.6-1.5-.6-2.4,0-1.8.6-3.2,1.8-4.1,1.2-.9,3-1.3,5.3-1.3s1,0,1.6.1c.6,0,1.1.1,1.4.2h5.5v3h-2.2c.5.5.8,1.3.8,2.2,0,1.4-.5,2.6-1.4,3.4-.9.8-2.3,1.2-4.1,1.2s-1,0-1.8-.1c-1.3.1-1.9.5-1.9,1s0,.4.3.5c.2,0,.5.1.9.1h3.7c1.5,0,2.6.3,3.5,1,.8.7,1.2,1.7,1.2,2.9s-.7,2.5-2,3.2-3.2,1.1-5.8,1.1-2.3,0-3.5-.2ZM65.4,29c.4-.4.6-1,.6-1.8s-.2-1.5-.6-1.9c-.4-.4-1.2-.6-2.2-.6s-1.7.2-2.1.6c-.4.4-.7,1-.7,1.9s.2,1.4.6,1.8c.4.4,1.1.6,2.2.6s1.8-.2,2.2-.5Z"/>
    <path class="st0" d="M73.1,35.9c-.7-.7-1-1.8-1-3.3v-16.4h4.9v16c0,.5,0,.8.3,1s.5.3.9.3,1,0,1.5-.2v3.3c-.5.2-1,.3-1.4.4-.5,0-1,.1-1.7.1-1.6,0-2.7-.3-3.4-1Z"/>
    <path class="st0" d="M78.6,29.5c0-2.4.7-4.3,2-5.6,1.3-1.3,3.4-1.9,6.1-1.9s4.8.6,6.1,1.9c1.3,1.3,2,3.1,2,5.6,0,5-2.7,7.5-8.1,7.5s-8.1-2.5-8.1-7.5ZM89.2,32.3c.5-.6.7-1.5.7-2.8s-.2-2.3-.7-2.8c-.5-.6-1.3-.9-2.4-.9s-1.9.3-2.4.9c-.5.6-.7,1.5-.7,2.8s.2,2.3.7,2.8c.5.6,1.3.9,2.4.9s1.9-.3,2.4-.9Z"/>
    <path class="st0" d="M102.5,36.6c-.7-.3-1.4-.6-2-1.1l-.2,1.2h-4.3v-20.5h4.9v6.7c1.1-.6,2.4-1,4-1,2.2,0,3.9.6,5,1.8s1.8,3.1,1.8,5.6-.6,4.4-1.8,5.7c-1.2,1.3-2.8,1.9-4.9,1.9s-1.8-.1-2.5-.4ZM106,32.4c.5-.6.7-1.7.7-3.1s-.2-2.4-.7-2.9c-.5-.6-1.3-.9-2.3-.9s-2.1.3-2.7.9v5.9c.7.7,1.6,1.1,2.7,1.1s1.9-.3,2.3-1Z"/>
    <path class="st0" d="M116.9,29.3l-5.3-7.1h5.3l2.7,3.6,2.7-3.6h5.3l-5.3,7.1,5.5,7.3h-5.4l-2.9-3.8-2.9,3.8h-5.4l5.5-7.3Z"/>
    <path class="st0" d="M129.5,35.9c-.7-.7-1-1.8-1-3.3v-16.4h4.9v16c0,.5,0,.8.3,1s.5.3.9.3,1,0,1.5-.2v3.3c-.5.2-1,.3-1.4.4-.5,0-1,.1-1.7.1-1.6,0-2.7-.3-3.4-1Z"/>
    <path class="st0" d="M137.7,25.9h-2.1l.4-3.6h6.6v14.4h-4.9v-10.8ZM137.3,16.3h5.3v3.7h-5.3v-3.7Z"/>
    <path class="st0" d="M144.8,22.3h4.6l.2,1.2c.6-.4,1.4-.8,2.3-1.1.9-.3,1.8-.4,2.8-.4,1.8,0,3.2.4,4.1,1.3.9.9,1.3,2.3,1.3,4.1v9.2h-4.9v-8.8c0-.8-.2-1.4-.5-1.7-.4-.3-1-.5-1.8-.5s-1.1.1-1.6.4c-.5.2-1,.5-1.4.9v9.8h-4.9v-14.4Z"/>
    <path class="st0" d="M162.1,16.2h4.9v10.7l4.7-4.6h5.6l-5.8,6,6.1,8.4h-5.2l-4-5.8-1.4,1.4v4.4h-4.9v-20.5Z"/>
  </g>
  <g>
    <path class="st1" d="M29.3,50.2c-11.6,0-21.1-9.5-21.1-21.1S17.6,8,29.3,8s21.1,9.5,21.1,21.1-9.5,21.1-21.1,21.1ZM29.3,12c-9.4,0-17.1,7.7-17.1,17.1s7.7,17.1,17.1,17.1,17.1-7.7,17.1-17.1-7.7-17.1-17.1-17.1Z"/>
    <path class="st1" d="M20.2,29.1h-4c0-7.2,5.9-13.1,13.1-13.1v4c-5,0-9.1,4.1-9.1,9.1Z"/>
    <path class="st0" d="M29.3,42.2v-4c4.3,0,7.9-3,8.9-7.1h-8.9v-4h13.1v2c0,7.2-5.9,13.1-13.1,13.1Z"/>
  </g>
</svg>